<?xml version="1.0" encoding="UTF-8"?>
<svg width="14px" height="17px" viewBox="0 0 14 17" version="1.1" xmlns="http://www.w3.org/2000/svg" xmlns:xlink="http://www.w3.org/1999/xlink">
    <!-- Generator: Sketch 53.2 (72643) - https://sketchapp.com -->
    <title>Group 36 Copy 2</title>
    <desc>Created with Sketch.</desc>
    <g id="Simulation" stroke="none" stroke-width="1" fill="none" fill-rule="evenodd">
        <g id="Hardware-Icons" transform="translate(-252.000000, -223.000000)">
            <g id="分组-38" transform="translate(238.000000, 211.000000)">
                <g id="Group-36-Copy-2" transform="translate(14.000000, 12.000000)">
                    <path d="M12.5858592,1.84430568 C13.3668686,1.84430572 14,2.33434937 14,2.93885054 L14,14.3246094 C14,14.9291106 13.3668686,15.4191543 12.5858593,15.4191543 L1.41414074,15.4191543 C0.633131414,15.4191543 1.101693e-13,14.9291106 1.101693e-13,14.3246094 L0,2.93885054 C-1.17928924e-07,2.33434953 0.633131414,1.84430584 1.41414071,1.84430584 L12.5858592,1.84430568 Z M6.99999994,11.730414 C10.8659887,11.730414 13.999986,12.9101139 13.999986,14.365207 C13.999986,15.8202937 10.865961,17 6.99999994,17 C3.13401114,17 1.38348229e-05,15.8204097 1.38348229e-05,14.365207 C1.38348229e-05,12.9100108 3.1340389,11.730414 6.99999994,11.730414 Z M6.99999994,6.73006767 C10.8659887,6.73006767 13.999986,7.9099867 13.999986,9.36550523 C13.999986,10.8210302 10.865961,12.0008354 6.99999994,12.0008354 C3.13401114,12.0008354 1.38348229e-05,10.8209163 1.38348229e-05,9.36550523 C1.38348229e-05,7.91008984 3.1340389,6.73006767 6.99999994,6.73006767 Z M6.99999994,0 C10.8659887,0 13.999986,1.1795903 13.999986,2.63479299 C13.999986,4.08998923 10.865961,5.26958598 6.99999994,5.26958598 C3.13401114,5.26958596 1.38348229e-05,4.0898861 1.38348229e-05,2.63479299 C1.38348229e-05,1.17970633 3.1340389,0 6.99999994,0 Z" id="Shape" fill="#879BAA" fill-rule="nonzero"></path>
                    <path d="M7,0 C10.8659965,0 14,1.11932754 14,2.5 C14,3.88067654 10.8659687,5 7,5 C3.13400353,5 0,3.88077641 0,2.5 C0,1.11921951 3.13403129,0 7,0 Z" id="Path" fill="#BECDD7"></path>
                </g>
            </g>
        </g>
    </g>
</svg>