<?xml version="1.0" encoding="UTF-8"?>
<svg width="25px" height="26px" viewBox="0 0 25 26" version="1.1" xmlns="http://www.w3.org/2000/svg" xmlns:xlink="http://www.w3.org/1999/xlink">
    <!-- Generator: Sketch 53.2 (72643) - https://sketchapp.com -->
    <title>分组 2 copy</title>
    <desc>Created with Sketch.</desc>
    <g id="Simulation" stroke="none" stroke-width="1" fill="none" fill-rule="evenodd">
        <g id="Hardware-Icons" transform="translate(-139.000000, -95.000000)">
            <g id="分组-2" transform="translate(139.000000, 95.000000)">
                <g transform="translate(-0.000000, 0.000000)">
                    <path d="M10,4.74294014 L13.5990689,1 L23.3928571,10.2576789 L19.7944127,14 C17.2280965,16.666014 12.9762678,16.6635301 10.287539,14.1261099 C7.5957032,11.5837675 7.43430519,7.40895413 10,4.74294014 Z" id="合并形状" fill="#879BAA"></path>
                    <g id="分组" transform="translate(0.000000, 5.975491)">
                        <path d="M17.7876214,5.78346886 C17.2525512,5.12189601 16.4047978,5.14926683 15.8944946,5.84154841 C15.3841915,6.53449757 15.4043146,7.63200086 15.9393848,8.29157096 C16.474455,8.95314381 17.3232403,8.92644057 17.8330275,8.23349141 C18.3438466,7.54120983 18.3232075,6.44437412 17.7876214,5.78346886" id="Fill-3" fill="#BECDD7" transform="translate(16.863831, 7.037641) rotate(-84.000000) translate(-16.863831, -7.037641) "></path>
                        <path d="M12.7548833,1.47926597 C12.2193863,0.817548415 11.37229,0.844925226 10.86104,1.53735823 C10.3513377,2.22979123 10.3709416,3.32753457 10.9059227,3.98791667 C11.4414197,4.64829877 12.2895478,4.62225741 12.8002819,3.92982441 C13.3105001,3.23739141 13.2898644,2.13898034 12.7548833,1.47926597" id="Fill-5" fill="#BECDD7" transform="translate(11.830638, 2.733333) rotate(-22.000000) translate(-11.830638, -2.733333) "></path>
                        <path d="M13.7657524,15.0951329 C13.5478754,14.5282325 12.916804,14.2453829 12.3557857,14.4663779 L4.71465709,17.4600202 C4.15363878,17.6810152 3.87461381,18.3199792 4.09130342,18.886279 C4.3085867,19.4543804 4.94084542,19.7366295 5.50245739,19.516235 L13.143586,16.5219922 C13.7040107,16.3021982 13.982442,15.6638348 13.7657524,15.0951329" id="Fill-7" fill="#879BAA"></path>
                        <path d="M16.8294855,7.13080713 C16.3204529,6.87241618 15.7107264,7.10124295 15.4681709,7.64226747 L12.1541738,15.00434 C11.9099494,15.5447732 12.1258015,16.1928201 12.6348342,16.4518023 C13.1438668,16.7096019 13.753037,16.4813665 13.9961487,15.9403419 L17.3107022,8.57826946 C17.5538139,8.0384275 17.3385181,7.38919808 16.8294855,7.13080713" id="Fill-9" fill="#BECDD7"></path>
                        <path d="M3.76728865,6.21615975 C4.30151623,6.41528897 4.58917723,7.06044284 4.41202692,7.65658982 L1.98690027,15.7799455 C1.8086393,16.3760924 1.23109597,16.698049 0.697423725,16.4989198 C0.163196146,16.3004109 -0.125575519,15.6546367 0.0526854511,15.0584897 L2.4778121,6.93637479 C2.65607307,6.3402278 3.23250574,6.01827121 3.76728865,6.21615975" id="Fill-11" fill="#879BAA"></path>
                        <path d="M12.3640243,2.39791666 C12.6613282,2.92883321 12.4552637,3.58861877 11.9003792,3.87486237 L4.35854273,7.76053015 C3.80365821,8.04617989 3.1128456,7.84782851 2.81430035,7.31750583 C2.51699645,6.78718314 2.7243023,6.12680372 3.27794547,5.84115398 L10.8210233,1.95489234 C11.3734251,1.66983647 12.0660998,1.86759398 12.3640243,2.39791666" id="Fill-13" fill="#BECDD7"></path>
                        <g id="Fill-23" transform="translate(12.300000, 14.624509)" fill="#879BAA">
                            <path d="M1.6,0.8 C1.6,1.24181687 1.24181687,1.6 0.8,1.6 C0.358183129,1.6 0,1.24181687 0,0.8 C0,0.358183129 0.358183129,0 0.8,0 C1.24181687,0 1.6,0.358183129 1.6,0.8"></path>
                        </g>
                        <g id="Fill-23" transform="translate(3.000000, 6.024509)" fill="#879BAA">
                            <path d="M1.6,0.8 C1.6,1.24181687 1.24181687,1.6 0.8,1.6 C0.358183129,1.6 0,1.24181687 0,0.8 C0,0.358183129 0.358183129,0 0.8,0 C1.24181687,0 1.6,0.358183129 1.6,0.8"></path>
                        </g>
                    </g>
                    <g id="合并形状" transform="translate(16.000000, 0.000000)">
                        <path d="M8.92857143,4.53416722 L4.88253791,8.66666667 L1.98951966e-13,4.13249945 L2.62315594,1.45319289 L3.52761167,0.531182796 L4.0466193,-1.4033219e-13 L4.88781,0.778231293 L8.08738073,3.75080097 L8.92857143,4.53416722 Z M6,4 C6,3.44758065 5.55223881,3 5.00040339,3 C4.44776119,3 4,3.44758065 4,4 C4,4.55241935 4.44776119,5 5.00040339,5 C5.55223881,5 6,4.55241935 6,4 Z" fill="#BECDD7"></path>
                        <path d="M6.5,4 C6.5,4.82846427 5.82787209,5.5 5,5.5 C4.17094355,5.5 3.5,4.82846427 3.5,4 C3.5,3.17153573 4.17094355,2.5 5,2.5 C5.82787209,2.5 6.5,3.17153573 6.5,4 Z M6,4 C6,3.44758065 5.55223881,3 5.00040339,3 C4.44776119,3 4,3.44758065 4,4 C4,4.55241935 4.44776119,5 5.00040339,5 C5.55223881,5 6,4.55241935 6,4 Z" fill="#879BAA"></path>
                    </g>
                </g>
            </g>
        </g>
    </g>
</svg>