<?xml version="1.0" encoding="UTF-8"?>
<svg width="16px" height="16px" viewBox="0 0 16 16" version="1.1" xmlns="http://www.w3.org/2000/svg" xmlns:xlink="http://www.w3.org/1999/xlink">
    <!-- Generator: Sketch 55 (78076) - https://sketchapp.com -->
    <title>编组 4</title>
    <desc>Created with Sketch.</desc>
    <g id="Page-1" stroke="none" stroke-width="1" fill="none" fill-rule="evenodd">
        <g id="guide" transform="translate(-356.000000, -1798.000000)">
            <g id="画板-–-2" transform="translate(248.000000, 1750.000000)">
                <g id="组_20" transform="translate(97.000000, 40.000000)">
                    <g id="编组-4" transform="translate(12.000000, 9.000000)">
                        <g id="组_17-4" stroke="#496679" stroke-linejoin="round" stroke-width="1.3">
                            <g id="分组_13-7" transform="translate(0.000000, 0.102000)">
                                <g id="分组_12-7">
                                    <polyline id="路径_21-7" points="3.639 0 0 0 0 14 14 14 14 7.607"></polyline>
                                </g>
                            </g>
                            <g id="分组_13-8" transform="translate(0.000000, 0.102000)">
                                <g id="分组_12-8">
                                    <polyline id="路径_21-8" points="10.361 0 14 0 14 14 0 14 0 7.607"></polyline>
                                </g>
                            </g>
                        </g>
                        <path d="M7.031,10.135 L4.891,7.994 C5.46679387,7.67433823 5.82396058,7.06757591 5.824,6.409 L5.824,3.391 L8.238,3.391 L8.238,6.405 C8.23803942,7.06357591 8.59520613,7.67033823 9.171,7.99 L7.031,10.135 L7.031,10.135 Z M7.031,11.591 C7.19111548,11.5916583 7.34485212,11.5282915 7.458,11.415 L11.432,7.439 C11.666,7.204 11.587,7.012 11.255,7.012 L10.048,7.012 C9.88887011,7.012 9.73625776,6.9487859 9.62373593,6.83626407 C9.5112141,6.72374224 9.448,6.57112989 9.448,6.412 L9.448,2.79 C9.448,2.63087011 9.3847859,2.47825776 9.27226407,2.36573593 C9.15974224,2.2532141 9.00712989,2.19 8.848,2.19 L5.227,2.19 C4.89562915,2.19 4.627,2.45862915 4.627,2.79 L4.627,6.405 C4.627,6.73637085 4.35837085,7.005 4.027,7.005 L2.811,7.005 C2.479,7.005 2.4,7.197 2.634,7.432 L6.608,11.408 C6.72114788,11.5212915 6.87488452,11.5846583 7.035,11.584 L7.031,11.591 Z" id="路径_31-4" stroke="#FFFFFF" stroke-width="0.2" fill="#496679" fill-rule="nonzero"></path>
                    </g>
                </g>
            </g>
        </g>
    </g>
</svg>