<?xml version="1.0" encoding="UTF-8"?>
<svg width="22px" height="22px" viewBox="0 0 22 22" version="1.1" xmlns="http://www.w3.org/2000/svg" xmlns:xlink="http://www.w3.org/1999/xlink">
    <!-- Generator: Sketch 53.2 (72643) - https://sketchapp.com -->
    <title>tongbutubiao</title>
    <desc>Created with Sketch.</desc>
    <g id="Simulation" stroke="none" stroke-width="1" fill="none" fill-rule="evenodd">
        <g id="Hardware-Icons" transform="translate(-131.000000, -216.000000)" fill="#697882" fill-rule="nonzero">
            <g id="tongbutubiao" transform="translate(131.000000, 216.000000)">
                <path d="M3.36799475,11.9166667 C2.81099969,8.58476876 4.7237832,5.21396255 8.13498754,3.94295785 C10.6630684,2.99843376 13.3892209,3.45136636 15.3202239,4.79968885 L13.6786501,7.34893119 L21.0434783,7.32074761 L18.4092039,0 L17.0607033,2.09256856 C14.2174257,0.326480602 10.3408442,-0.249412224 6.94421539,1.0181007 C2.23968933,2.77371335 -0.467983394,7.32074761 0.066888033,11.9131749 L3.36799475,11.9131749 L3.36799475,11.9166667 Z M18.6955751,10.0833333 C19.2425639,13.3555117 17.3643984,16.665901 14.0144751,17.9141248 C11.7296463,18.7657876 9.21426437,18.4451587 7.27858836,17.2968713 C7.64563322,16.7244421 8.73603252,15.0348331 8.73603252,15.0348331 L0.956521739,14.5968771 L4.24893462,22 L5.6307205,19.8587182 C8.42317533,21.5931516 11.8485014,22.0311076 15.1841111,20.7863131 C19.8005437,19.058983 22.4595741,14.5968771 21.9343115,10.0867625 L18.6955751,10.0833333 Z" id="形状"></path>
            </g>
        </g>
    </g>
</svg>