<?xml version="1.0" encoding="UTF-8"?>
<svg width="16px" height="16px" viewBox="0 0 16 16" version="1.1" xmlns="http://www.w3.org/2000/svg" xmlns:xlink="http://www.w3.org/1999/xlink">
    <!-- Generator: Sketch 55 (78076) - https://sketchapp.com -->
    <title>组_14-4</title>
    <desc>Created with Sketch.</desc>
    <g id="Page-1" stroke="none" stroke-width="1" fill="none" fill-rule="evenodd">
        <g id="guide" transform="translate(-269.000000, -1798.000000)" fill="#496679" fill-rule="nonzero">
            <g id="画板-–-2" transform="translate(248.000000, 1750.000000)">
                <g id="组_21" transform="translate(2.000000, 40.000000)">
                    <g id="组_14-4" transform="translate(19.000000, 8.000000)">
                        <g id="组_5-4">
                            <path d="M15.5,5.5 L14.25,5.5 L14.25,1.75 L10.5,1.75 L10.5,0.5 L14.875,0.5 C15.2199496,0.500550599 15.4994494,0.780050354 15.5,1.125 L15.5,5.5 L15.5,5.5 Z M1.75,5.5 L0.5,5.5 L0.5,1.125 C0.5,0.779822031 0.779822031,0.5 1.125,0.5 L5.5,0.5 L5.5,1.75 L1.75,1.75 L1.75,5.5 Z" id="Exclusion_4-4"></path>
                            <path d="M14.25,10.5 L14.25,14.25 L10.5,14.25 L10.5,15.5 L14.875,15.5 C15.2197222,15.4989022 15.4989022,15.2197222 15.5,14.875 L15.5,10.5 L14.25,10.5 Z" id="路径-7"></path>
                            <path d="M5.5,14.25 L1.75,14.25 L1.75,10.5 L0.5,10.5 L0.5,14.875 C0.50109785,15.2197222 0.7802778,15.4989022 1.125,15.5 L5.5,15.5 L5.5,14.25 Z" id="路径-8"></path>
                        </g>
                        <g id="组_4-4" transform="translate(3.000000, 3.268000)" stroke="#496679" stroke-width="0.7">
                            <path d="M6.61809188,3.3752605 C6.63390806,3.39102185 6.64279812,3.41243177 6.64279812,3.4347605 C6.64279812,3.45708922 6.63390806,3.47849914 6.61809188,3.4942605 L5.90509188,4.2072605 C5.87223094,4.24012144 5.81895282,4.24012144 5.78609188,4.2072605 C5.75323094,4.17439955 5.75323094,4.12112144 5.78609188,4.0882605 L6.50009188,3.3752605 C6.51585324,3.35944432 6.53726315,3.35055426 6.55959188,3.35055426 C6.5819206,3.35055426 6.60333052,3.35944432 6.61909188,3.3752605 L6.61809188,3.3752605 Z M5.90609188,2.6632605 L6.61909188,3.3762605 C6.64034918,3.3975178 6.64865111,3.42850099 6.64087039,3.45753901 C6.63308968,3.48657702 6.61040841,3.5092583 6.58137039,3.51703901 C6.55233237,3.52481972 6.52134918,3.5165178 6.50009188,3.4952605 L5.78709188,2.7812605 C5.75831165,2.7478406 5.76027899,2.69785392 5.79159676,2.66679932 C5.82291454,2.63574472 5.87291604,2.63419927 5.90609188,2.6632605 Z M0.770091878,3.3522605 L6.54209188,3.3522605 C6.57412439,3.3522605 6.60009188,3.37822798 6.60009188,3.4102605 L6.60009188,3.4612605 C6.60009188,3.49329301 6.57412439,3.5192605 6.54209188,3.5192605 L0.770091878,3.5192605 C0.738059363,3.5192605 0.712091878,3.49329301 0.712091878,3.4612605 L0.712091878,3.4102605 C0.712091878,3.39487794 0.718202575,3.38012541 0.729079685,3.3692483 C0.739956795,3.35837119 0.754709322,3.3522605 0.770091878,3.3522605 Z" id="路径_11-4" transform="translate(3.677916, 3.437176) rotate(-90.000000) translate(-3.677916, -3.437176) "></path>
                            <path d="M9.496,6.353 C9.51181618,6.36876136 9.52070624,6.39017128 9.52070624,6.4125 C9.52070624,6.43482872 9.51181618,6.45623864 9.496,6.472 L8.783,7.185 C8.75013906,7.21786094 8.69686094,7.21786094 8.664,7.185 C8.63113906,7.15213906 8.63113906,7.09886094 8.664,7.066 L9.378,6.353 C9.39376136,6.33718382 9.41517128,6.32829376 9.4375,6.32829376 C9.45982872,6.32829376 9.48123864,6.33718382 9.497,6.353 L9.496,6.353 Z M8.784,5.641 L9.497,6.354 C9.5182573,6.3752573 9.52655923,6.4062405 9.51877851,6.43527851 C9.5109978,6.46431653 9.48831653,6.4869978 9.45927851,6.49477851 C9.4302405,6.50255923 9.3992573,6.4942573 9.378,6.473 L8.665,5.759 C8.63621977,5.7255801 8.63818711,5.67559342 8.66950489,5.64453882 C8.70082266,5.61348423 8.75082416,5.61193877 8.784,5.641 Z M3.648,6.33 L9.42,6.33 C9.45203252,6.33 9.478,6.35596748 9.478,6.388 L9.478,6.439 C9.478,6.47103252 9.45203252,6.497 9.42,6.497 L3.648,6.497 C3.61596748,6.497 3.59,6.47103252 3.59,6.439 L3.59,6.388 C3.59,6.37261744 3.5961107,6.35786492 3.60698781,6.34698781 C3.61786492,6.3361107 3.63261744,6.33 3.648,6.33 Z" id="路径_12-4"></path>
                            <path d="M4.21627199,7.50495313 C4.23208817,7.52071449 4.24097823,7.54212441 4.24097823,7.56445313 C4.24097823,7.58678185 4.23208817,7.60819177 4.21627199,7.62395313 L3.50527199,8.33695313 C3.48401469,8.35838907 3.4529362,8.36685605 3.42374348,8.35916466 C3.39455077,8.35147326 3.37167889,8.32879199 3.36374348,8.29966466 C3.35580807,8.27053732 3.36401469,8.23938907 3.38527199,8.21795313 L4.09727199,7.50495313 C4.11303335,7.48913695 4.13444327,7.48024689 4.15677199,7.48024689 C4.17910072,7.48024689 4.20051064,7.48913695 4.21627199,7.50495313 L4.21627199,7.50495313 Z M3.50527199,6.79295313 L4.21827199,7.50595313 C4.2395293,7.52721043 4.24783122,7.55819363 4.24005051,7.58723164 C4.2322698,7.61626966 4.20958852,7.63895093 4.18055051,7.64673164 C4.15151249,7.65451236 4.1205293,7.64621043 4.09927199,7.62495313 L3.38527199,6.91095313 C3.35268719,6.87781605 3.35313491,6.82453793 3.38627199,6.79195313 C3.41940908,6.75936833 3.47268719,6.75981605 3.50527199,6.79295313 L3.50527199,6.79295313 Z M0.863271994,7.48195313 L4.13927199,7.48195313 C4.17130451,7.48195313 4.19727199,7.50792061 4.19727199,7.53995313 L4.19727199,7.59095313 C4.19727199,7.62298565 4.17130451,7.64895313 4.13927199,7.64895313 L0.863271994,7.64895313 C0.831239478,7.64895313 0.805271994,7.62298565 0.805271994,7.59095313 L0.805271994,7.53995313 C0.805271994,7.52457057 0.81138269,7.50981805 0.8222598,7.49894094 C0.83313691,7.48806383 0.847889437,7.48195313 0.863271994,7.48195313 Z" id="路径_13-4" transform="translate(2.524096, 7.564880) rotate(135.000000) translate(-2.524096, -7.564880) "></path>
                        </g>
                    </g>
                </g>
            </g>
        </g>
    </g>
</svg>