<?xml version="1.0" encoding="UTF-8"?>
<svg width="27px" height="27px" viewBox="0 0 27 27" version="1.1" xmlns="http://www.w3.org/2000/svg" xmlns:xlink="http://www.w3.org/1999/xlink">
    <!-- Generator: Sketch 53.2 (72643) - https://sketchapp.com -->
    <title>yidong</title>
    <desc>Created with Sketch.</desc>
    <g id="Simulation" stroke="none" stroke-width="1" fill="none" fill-rule="evenodd">
        <g id="Hardware-Icons" transform="translate(-70.000000, -211.000000)" fill="#697882" fill-rule="nonzero">
            <g id="yidong" transform="translate(70.000000, 211.000000)">
                <path d="M26.8714786,13.2290616 L22.4126118,9.6156689 C22.1853074,9.43063782 21.8443507,9.59187919 21.8443507,9.88792892 L21.8443507,12.3858485 L14.6155417,12.3858485 L14.6155417,5.1590631 L17.1132472,5.1590631 C17.4066285,5.1590631 17.5704991,4.81807724 17.3854839,4.59075334 L13.7724009,0.128860933 C13.632318,-0.0429536443 13.3706536,-0.0429536443 13.2305706,0.128860933 L9.6148446,4.58811004 C9.42982937,4.81543394 9.59105693,5.1564198 9.88708128,5.1564198 L12.3847868,5.1564198 L12.3847868,12.3832052 L5.15862083,12.3832052 L5.15862083,9.88528562 C5.15862083,9.59187919 4.81766421,9.42799452 4.58771672,9.6130256 L0.128849886,13.2290616 C-0.0429499621,13.3691566 -0.0429499621,13.6308434 0.128849886,13.7709384 L4.58771672,17.3869744 C4.81502114,17.5720055 5.15862083,17.4107641 5.15862083,17.1147144 L5.15862083,14.6167948 L12.3847868,14.6167948 L12.3847868,21.8435802 L9.88708128,21.8435802 C9.5937,21.8435802 9.42982937,22.1845661 9.6148446,22.41189 L13.2305706,26.8711391 C13.3706536,27.0429536 13.632318,27.0429536 13.7724009,26.8711391 L17.3854839,22.4145333 C17.5704991,22.1872094 17.4066285,21.8462235 17.1132472,21.8462235 L14.6155417,21.8462235 L14.6155417,14.6167948 L21.8417077,14.6167948 L21.8417077,17.1147144 C21.8417077,17.4081208 22.1826643,17.5720055 22.4099687,17.3869744 L26.8688355,13.7709384 C27.0432785,13.6334867 27.0432785,13.3691566 26.8714786,13.2290616 Z" id="路径"></path>
            </g>
        </g>
    </g>
</svg>